<svg xmlns="http://www.w3.org/2000/svg" viewBox="0 0 228.62 19.44" aria-label="HotelMap logo">
            <path fill="#fff" d="m3.3,11.2v7.92H0V.32h3.3v7.82h8.97V.32h3.3v18.8h-3.3v-7.92H3.3Z"/>
            <path fill="#fff" d="m40.14,19.44c-5.78,0-9.81-4.38-9.81-9.7S34.42,0,40.19,0s9.81,4.38,9.81,9.7-4.08,9.75-9.86,9.75Zm0-16.41c-3.73,0-6.34,2.98-6.34,6.66s2.66,6.71,6.39,6.71,6.34-2.98,6.34-6.66-2.66-6.71-6.39-6.71Z"/>
            <path fill="#fff" d="m71.68,19.12h-3.33V3.38h-5.96V.32h15.26v3.06h-5.96v15.74Z"/>
            <path fill="#fff" d="m105.83,3.28h-10.64v4.89h9.43v2.95h-9.43v5.05h10.77v2.95h-14.08V.32h13.94v2.96Z"/>
            <path fill="#fff" d="m120.64.32h3.3v15.79h9.89v3.01h-13.19V.32Z"/>
            <path fill="#fff" d="m157.26,14.5h-.11l-5.88-8.81v13.42h-3.25V.32h3.52l5.72,8.89,5.72-8.89h3.52v18.8h-3.3V5.64l-5.94,8.86Z"/>
            <path fill="#fff" d="m200.09,19.12h-3.49l-1.91-4.54h-8.89l-1.93,4.54h-3.39L188.75.19h3.06l8.27,18.93Zm-9.86-14.98l-3.22,7.52h6.48l-3.25-7.52Z"/>
            <path fill="#fff" d="m221.1,13.08h-3.73v6.04h-3.31V.32h7.42c4.38,0,7.15,2.47,7.15,6.31,0,4.24-3.38,6.44-7.52,6.44Zm.11-9.75h-3.84v6.77h3.84c2.5,0,4.06-1.37,4.06-3.38,0-2.23-1.58-3.38-4.06-3.38Z"/>
        </svg>
